<svg fill="#000000" xmlns="http://www.w3.org/2000/svg"  viewBox="0 0 50 50" width="50px" height="50px"><path d="M 25 6.09375 C 21.304688 6.09375 17.9375 7.4375 15.5625 9.59375 C 15.542969 9.601563 15.519531 9.613281 15.5 9.625 C 15.5 9.625 11.554688 10.558594 7.71875 14.34375 C 3.882813 18.128906 0.09375 24.800781 0.09375 36 C 0.09375 36.5 0.5 36.90625 1 36.90625 C 1.5 36.90625 1.90625 36.5 1.90625 36 C 1.90625 25.199219 5.457031 19.121094 8.96875 15.65625 C 10.527344 14.121094 12.050781 13.125 13.28125 12.46875 C 12.738281 13.46875 12.351563 14.546875 12.1875 15.6875 C 11.9375 15.84375 11.5625 16.121094 11.03125 16.625 C 10.230469 17.386719 9.1875 18.601563 8.15625 20.375 C 6.09375 23.925781 4.09375 29.769531 4.09375 39 C 4.09375 39.5 4.5 39.90625 5 39.90625 C 5.5 39.90625 5.90625 39.5 5.90625 39 C 5.90625 30.03125 7.832031 24.53125 9.71875 21.28125 C 10.625 19.722656 11.511719 18.6875 12.1875 18.03125 C 12.304688 19.023438 12.558594 19.984375 12.96875 20.875 C 12.804688 21.050781 12.625 21.257813 12.40625 21.5625 C 11.902344 22.261719 11.261719 23.355469 10.625 24.96875 C 9.347656 28.199219 8.09375 33.511719 8.09375 42 C 8.09375 42.5 8.5 42.90625 9 42.90625 C 9.5 42.90625 9.90625 42.5 9.90625 42 C 9.90625 33.6875 11.105469 28.597656 12.28125 25.625 C 12.867188 24.140625 13.460938 23.199219 13.875 22.625 C 13.90625 22.578125 13.90625 22.570313 13.9375 22.53125 C 14.191406 22.890625 14.453125 23.230469 14.75 23.5625 L 13.3125 30.09375 C 12.515625 33.628906 14.457031 37.28125 17.8125 38.4375 C 17.832031 38.449219 17.855469 38.460938 17.875 38.46875 L 20.09375 39.03125 C 20.109375 40.609375 21.417969 41.90625 23 41.90625 L 27 41.90625 C 28.589844 41.90625 29.90625 40.589844 29.90625 39 L 32.125 38.46875 C 32.144531 38.460938 32.167969 38.449219 32.1875 38.4375 C 35.542969 37.28125 37.484375 33.628906 36.6875 30.09375 L 35.25 23.46875 C 35.523438 23.152344 35.765625 22.816406 36 22.46875 C 36.050781 22.535156 36.066406 22.542969 36.125 22.625 C 36.539063 23.199219 37.132813 24.140625 37.71875 25.625 C 38.894531 28.597656 40.09375 33.6875 40.09375 42 C 40.09375 42.5 40.5 42.90625 41 42.90625 C 41.5 42.90625 41.90625 42.5 41.90625 42 C 41.90625 33.511719 40.652344 28.199219 39.375 24.96875 C 38.738281 23.355469 38.097656 22.261719 37.59375 21.5625 C 37.339844 21.210938 37.109375 20.960938 36.9375 20.78125 C 37.332031 19.910156 37.621094 19 37.78125 18 C 38.457031 18.65625 39.363281 19.703125 40.28125 21.28125 C 42.167969 24.53125 44.09375 30.03125 44.09375 39 C 44.09375 39.5 44.5 39.90625 45 39.90625 C 45.5 39.90625 45.90625 39.5 45.90625 39 C 45.90625 29.769531 43.90625 23.925781 41.84375 20.375 C 40.8125 18.601563 39.769531 17.386719 38.96875 16.625 C 38.511719 16.1875 38.136719 15.921875 37.875 15.75 C 37.773438 14.648438 37.472656 13.566406 36.96875 12.59375 C 38.15625 13.25 39.578125 14.222656 41.03125 15.65625 C 44.542969 19.121094 48.09375 25.199219 48.09375 36 C 48.09375 36.5 48.5 36.90625 49 36.90625 C 49.5 36.90625 49.90625 36.5 49.90625 36 C 49.90625 24.800781 46.117188 18.128906 42.28125 14.34375 C 38.65625 10.765625 35.054688 9.757813 34.65625 9.65625 C 34.503906 9.515625 34.347656 9.382813 34.1875 9.25 C 31.785156 7.292969 28.503906 6.09375 25 6.09375 Z M 25 7.90625 C 28.09375 7.90625 31.011719 8.957031 33.0625 10.625 C 33.203125 10.738281 33.335938 10.851563 33.46875 10.96875 C 33.472656 10.972656 33.464844 10.996094 33.46875 11 C 33.523438 11.070313 33.585938 11.132813 33.65625 11.1875 C 33.695313 11.222656 33.738281 11.253906 33.78125 11.28125 C 35.375 12.859375 36.246094 14.820313 36.09375 16.9375 C 35.632813 22.648438 30.726563 26.09375 25 26.09375 C 21.519531 26.09375 18.429688 24.78125 16.40625 22.75 C 14.832031 21.167969 13.90625 19.148438 13.90625 17 C 13.90625 12.089844 18.808594 7.90625 25 7.90625 Z M 25 9.1875 C 22.601563 9.1875 20.402344 9.960938 18.78125 11.21875 C 17.160156 12.476563 16.09375 14.285156 16.09375 16.3125 C 16.09375 18.339844 17.160156 20.148438 18.78125 21.40625 C 20.402344 22.664063 22.601563 23.40625 25 23.40625 C 27.398438 23.40625 29.597656 22.664063 31.21875 21.40625 C 32.839844 20.148438 33.90625 18.339844 33.90625 16.3125 C 33.90625 14.285156 32.839844 12.476563 31.21875 11.21875 C 29.597656 9.960938 27.398438 9.1875 25 9.1875 Z M 25 11 C 27.019531 11 28.820313 11.640625 30.09375 12.625 C 31.367188 13.609375 32.09375 14.914063 32.09375 16.3125 C 32.09375 17.710938 31.367188 18.984375 30.09375 19.96875 C 28.820313 20.953125 27.019531 21.59375 25 21.59375 C 22.980469 21.59375 21.179688 20.953125 19.90625 19.96875 C 18.632813 18.984375 17.90625 17.710938 17.90625 16.3125 C 17.90625 14.914063 18.632813 13.609375 19.90625 12.625 C 21.179688 11.640625 22.980469 11 25 11 Z M 32.125 26.03125 C 32.089844 26.125 32.078125 26.21875 32.03125 26.3125 C 31.582031 27.25 30.886719 28.09375 29 28.09375 C 28.117188 28.09375 27.675781 27.917969 27.40625 27.71875 C 29.101563 27.445313 30.699219 26.855469 32.125 26.03125 Z M 17.875 26.09375 C 19.277344 26.882813 20.867188 27.441406 22.5625 27.71875 C 22.289063 27.910156 21.863281 28.09375 21 28.09375 C 19.113281 28.09375 18.417969 27.25 17.96875 26.3125 C 17.933594 26.234375 17.90625 26.167969 17.875 26.09375 Z M 16.03125 26.21875 C 16.117188 26.5 16.203125 26.796875 16.34375 27.09375 C 16.996094 28.453125 18.488281 29.90625 21 29.90625 C 22.648438 29.90625 23.71875 29.3125 24.28125 28.625 C 24.480469 28.382813 24.625 28.132813 24.71875 27.90625 C 24.8125 27.90625 24.90625 27.90625 25 27.90625 C 25.09375 27.90625 25.1875 27.90625 25.28125 27.90625 C 25.375 28.132813 25.519531 28.382813 25.71875 28.625 C 26.28125 29.3125 27.351563 29.90625 29 29.90625 C 31.511719 29.90625 33.003906 28.453125 33.65625 27.09375 C 33.800781 26.792969 33.914063 26.5 34 26.21875 L 34.90625 30.5 C 34.917969 30.5 34.925781 30.5 34.9375 30.5 C 35.53125 33.132813 34.074219 35.839844 31.6875 36.71875 C 31.65625 36.730469 31.625 36.738281 31.59375 36.75 L 29.90625 37.15625 L 29.90625 33 C 29.90625 32.699219 29.753906 32.414063 29.5 32.25 L 26.5 30.25 C 26.351563 30.148438 26.179688 30.09375 26 30.09375 L 24 30.09375 C 23.96875 30.09375 23.9375 30.09375 23.90625 30.09375 C 23.761719 30.113281 23.621094 30.164063 23.5 30.25 L 20.5 32.25 C 20.246094 32.414063 20.09375 32.699219 20.09375 33 L 20.09375 37.15625 L 18.40625 36.75 L 18.3125 36.71875 C 15.925781 35.839844 14.46875 33.132813 15.0625 30.5 C 15.074219 30.5 15.082031 30.5 15.09375 30.5 Z M 24.25 31.90625 L 25.75 31.90625 L 28.09375 33.46875 L 28.09375 38.1875 C 28.085938 38.25 28.085938 38.3125 28.09375 38.375 L 28.09375 39 C 28.09375 39.609375 27.609375 40.09375 27 40.09375 L 23 40.09375 C 22.390625 40.09375 21.90625 39.609375 21.90625 39 L 21.90625 38.40625 C 21.910156 38.355469 21.910156 38.300781 21.90625 38.25 L 21.90625 33.46875 Z"/></svg>